<?xml version="1.0" standalone="no"?>
<!DOCTYPE svg PUBLIC "-//W3C//DTD SVG 20010904//EN"
 "http://www.w3.org/TR/2001/REC-SVG-20010904/DTD/svg10.dtd">
<svg version="1.0" xmlns="http://www.w3.org/2000/svg"
 width="261.000000pt" height="99.000000pt" viewBox="0 0 261.000000 99.000000"
 preserveAspectRatio="xMidYMid meet">

<g transform="translate(0.000000,99.000000) scale(0.100000,-0.100000)"
fill="#000000" stroke="none">
<path d="M0 495 l0 -495 1305 0 1305 0 0 495 0 495 -1305 0 -1305 0 0 -495z
m676 255 c48 -22 71 -40 102 -81 49 -67 62 -105 62 -184 0 -81 -22 -144 -72
-200 -70 -80 -167 -112 -281 -94 -230 37 -323 332 -159 502 44 46 80 66 147
83 65 16 126 9 201 -26z m409 -135 c0 -18 -8 -20 -67 -23 l-68 -3 0 -37 0 -37
47 0 c42 0 48 -3 51 -22 3 -21 0 -23 -47 -23 l-51 0 0 -34 0 -34 65 -4 c70 -4
81 -9 72 -33 -5 -12 -25 -15 -97 -15 l-90 0 0 138 c0 76 3 141 6 145 3 3 45 5
93 4 79 -2 86 -4 86 -22z m1029 19 c21 -8 21 -40 0 -48 -21 -8 -34 1 -34 23 0
28 9 34 34 25z m-924 -116 l27 -32 23 32 c17 23 32 32 53 32 l29 0 -36 -44
c-20 -24 -36 -48 -36 -52 0 -4 16 -26 35 -50 19 -23 35 -45 35 -48 0 -3 -11
-6 -24 -6 -17 0 -34 12 -53 36 l-27 36 -29 -36 c-19 -23 -37 -36 -53 -36 -32
0 -30 7 16 59 l39 44 -35 42 c-40 49 -41 55 -12 55 12 0 33 -14 48 -32z m225
22 c4 -7 12 -7 25 0 45 24 120 5 139 -37 33 -73 -11 -153 -86 -153 -21 0 -45
5 -53 10 -12 8 -16 1 -20 -43 -4 -45 -8 -52 -27 -53 -23 -1 -23 0 -23 142 0
136 1 144 19 144 11 0 23 -5 26 -10z m396 -19 c41 -41 41 -101 0 -142 -25 -25
-37 -29 -81 -29 -44 0 -56 4 -81 29 -23 23 -29 38 -29 71 0 33 6 48 29 71 25
25 37 29 81 29 44 0 56 -4 81 -29z m207 4 c2 -18 -2 -20 -48 -17 -40 3 -50 1
-50 -12 0 -9 12 -18 28 -22 55 -14 82 -33 82 -61 0 -42 -26 -63 -81 -63 -63 0
-79 7 -79 36 0 21 3 23 19 14 31 -16 91 -13 91 5 0 8 -12 18 -27 21 -56 14
-83 33 -83 61 0 46 26 64 89 61 47 -3 56 -6 59 -23z m112 -75 l0 -100 -25 0
-25 0 0 100 0 100 25 0 25 0 0 -100z m219 86 c66 -35 66 -137 0 -172 -36 -18
-92 -18 -129 1 -60 31 -61 138 -2 170 35 18 95 19 131 1z"/>
<path d="M479 726 c-153 -41 -231 -215 -159 -356 25 -48 88 -104 136 -121 170
-57 334 59 334 236 0 119 -79 220 -193 245 -57 12 -60 12 -118 -4z m141 -113
c33 -22 49 -42 61 -75 8 -20 18 -28 35 -28 19 0 24 -5 24 -25 0 -20 -5 -25
-24 -25 -17 0 -26 -7 -30 -24 -9 -36 -61 -84 -104 -95 -119 -33 -231 98 -175
206 29 55 75 83 137 83 32 0 61 -6 76 -17z"/>
<path d="M475 556 c-34 -34 -41 -71 -22 -112 20 -41 68 -68 107 -59 76 17 105
104 54 164 -22 26 -33 31 -70 31 -34 0 -51 -6 -69 -24z"/>
<path d="M1438 499 c-24 -14 -24 -71 0 -92 40 -36 102 -9 102 45 0 47 -57 73
-102 47z"/>
<path d="M1686 494 c-22 -21 -20 -67 2 -87 40 -37 102 -9 102 46 0 34 -24 57
-60 57 -16 0 -36 -7 -44 -16z"/>
<path d="M2248 499 c-12 -7 -18 -23 -18 -50 0 -32 5 -41 24 -50 58 -27 110 24
84 79 -14 30 -59 40 -90 21z"/>
</g>
</svg>
