<svg xmlns="http://www.w3.org/2000/svg" width="261" height="99" viewBox="0 0 261 99" version="1.1"><path d="M 51.250 20.716 C 52.763 20.945, 55.237 20.945, 56.750 20.716 C 58.263 20.487, 57.025 20.300, 54 20.300 C 50.975 20.300, 49.737 20.487, 51.250 20.716 M 45.813 21.683 C 46.534 21.972, 47.397 21.936, 47.729 21.604 C 48.061 21.272, 47.471 21.036, 46.417 21.079 C 45.252 21.127, 45.015 21.364, 45.813 21.683 M 40.441 23.555 C 38.611 25.022, 38.643 25.042, 41 23.920 C 44.061 22.462, 44.628 22, 43.358 22 C 42.821 22, 41.509 22.700, 40.441 23.555 M 51.768 25.725 C 53.565 25.947, 56.265 25.943, 57.768 25.715 C 59.271 25.486, 57.800 25.304, 54.500 25.310 C 51.200 25.315, 49.971 25.502, 51.768 25.725 M 71 25.378 C 71 25.585, 71.787 26.373, 72.750 27.128 C 74.336 28.371, 74.371 28.336, 73.128 26.750 C 71.821 25.084, 71 24.555, 71 25.378 M 42.507 27.989 C 42.157 28.555, 42.558 28.723, 43.448 28.382 C 45.180 27.717, 45.497 27, 44.059 27 C 43.541 27, 42.843 27.445, 42.507 27.989 M 66 28.350 C 66 28.581, 67.180 29.543, 68.623 30.489 C 70.066 31.434, 70.941 31.713, 70.567 31.109 C 69.854 29.955, 66 27.626, 66 28.350 M 38.872 30.750 C 37.629 32.336, 37.664 32.371, 39.250 31.128 C 40.916 29.821, 41.445 29, 40.622 29 C 40.415 29, 39.627 29.788, 38.872 30.750 M 77.500 32 C 78.495 33.100, 79.535 34, 79.810 34 C 80.085 34, 79.495 33.100, 78.500 32 C 77.505 30.900, 76.465 30, 76.190 30 C 75.915 30, 76.505 30.900, 77.500 32 M 29.783 32.750 C 27.566 35.292, 25.746 39.079, 26.419 39.752 C 26.739 40.072, 27 39.871, 27 39.306 C 27 38.741, 28.111 36.641, 29.470 34.640 C 32.120 30.734, 32.256 29.915, 29.783 32.750 M 75.313 37.919 C 76.500 40.087, 77.624 41.709, 77.810 41.524 C 78.294 41.039, 75.193 35.237, 74.084 34.552 C 73.572 34.236, 74.125 35.751, 75.313 37.919 M 52.250 35.689 C 53.212 35.941, 54.788 35.941, 55.750 35.689 C 56.712 35.438, 55.925 35.232, 54 35.232 C 52.075 35.232, 51.288 35.438, 52.250 35.689 M 89 49.500 L 89 64 99 64 L 109 64 109 61.500 C 109 59.071, 108.800 59, 102 59 L 95 59 95 55.552 C 95 52.110, 95.009 52.104, 100.250 51.707 L 105.500 51.309 100 51.405 L 94.500 51.500 94.500 55.500 L 94.500 59.500 101.250 59.796 C 106.354 60.019, 108 60.446, 108 61.546 C 108 62.710, 106.208 63, 99 63 L 90 63 90 49.500 L 90 36 99 36 C 106.208 36, 108 36.290, 108 37.454 C 108 38.554, 106.354 38.981, 101.250 39.204 L 94.500 39.500 94.500 43.500 L 94.500 47.500 99.500 47.578 L 104.500 47.656 99.750 47.276 C 95.075 46.902, 95 46.841, 95 43.448 L 95 40 102 40 C 108.800 40, 109 39.929, 109 37.500 L 109 35 99 35 L 89 35 89 49.500 M 209 35.383 C 209 35.594, 209.901 36.002, 211.001 36.290 C 212.102 36.578, 212.751 36.405, 212.442 35.907 C 211.904 35.036, 209 34.594, 209 35.383 M 43.437 40.250 L 40.500 43.500 43.750 40.563 C 45.538 38.948, 47 37.485, 47 37.313 C 47 36.540, 46.175 37.221, 43.437 40.250 M 81.731 39.080 C 82.085 40.432, 82.538 40.886, 82.788 40.137 C 83.028 39.415, 82.750 38.350, 82.168 37.768 C 81.426 37.026, 81.296 37.417, 81.731 39.080 M 30.970 40.055 C 30.365 41.186, 30.018 42.555, 30.200 43.099 C 30.381 43.642, 31.046 42.717, 31.678 41.043 C 32.991 37.562, 32.598 37.013, 30.970 40.055 M 64.500 40 C 65.495 41.100, 66.535 42, 66.810 42 C 67.085 42, 66.495 41.100, 65.500 40 C 64.505 38.900, 63.465 38, 63.190 38 C 62.915 38, 63.505 38.900, 64.500 40 M 53.269 40.693 C 54.242 40.947, 55.592 40.930, 56.269 40.656 C 56.946 40.382, 56.150 40.175, 54.500 40.195 C 52.850 40.215, 52.296 40.439, 53.269 40.693 M 46.924 43.750 L 44.500 46.500 47.500 44 C 49.150 42.625, 50.688 41.388, 50.917 41.250 C 51.146 41.112, 50.887 41, 50.341 41 C 49.795 41, 48.258 42.237, 46.924 43.750 M 60 42.378 C 60 42.585, 60.788 43.373, 61.750 44.128 C 63.336 45.371, 63.371 45.336, 62.128 43.750 C 60.821 42.084, 60 41.555, 60 42.378 M 227.813 43.683 C 228.534 43.972, 229.397 43.936, 229.729 43.604 C 230.061 43.272, 229.471 43.036, 228.417 43.079 C 227.252 43.127, 227.015 43.364, 227.813 43.683 M 24.195 46.500 C 24.215 48.150, 24.439 48.704, 24.693 47.731 C 24.947 46.758, 24.930 45.408, 24.656 44.731 C 24.382 44.054, 24.175 44.850, 24.195 46.500 M 113.500 44.733 C 115.150 44.972, 117.400 45.917, 118.500 46.834 C 120.484 48.487, 120.485 48.482, 118.595 46.250 C 117.299 44.719, 115.701 44.048, 113.595 44.150 L 110.500 44.300 113.500 44.733 M 124.405 46.250 C 122.515 48.482, 122.516 48.487, 124.500 46.834 C 125.600 45.917, 127.850 44.972, 129.500 44.733 L 132.500 44.300 129.405 44.150 C 127.299 44.048, 125.701 44.719, 124.405 46.250 M 136 58.500 L 136 73 138.907 73 C 141.724 73, 141.826 72.827, 142.157 67.499 C 142.346 64.473, 142.162 61.998, 141.750 61.999 C 141.338 61.999, 141 64.250, 141 67 C 141 71.333, 140.733 72, 139 72 C 137.099 72, 137 71.333, 137 58.500 C 137 45.862, 137.122 45, 138.917 45 C 139.971 45, 141.060 45.563, 141.338 46.250 C 141.639 46.997, 141.874 46.795, 141.921 45.750 C 141.979 44.455, 141.221 44, 139 44 L 136 44 136 58.500 M 143.507 44.989 C 143.157 45.555, 143.558 45.723, 144.448 45.382 C 146.180 44.717, 146.497 44, 145.059 44 C 144.541 44, 143.843 44.445, 143.507 44.989 M 207 54 L 207 64 210.250 63.850 C 213.275 63.711, 213.310 63.671, 210.750 63.284 L 208 62.867 208 54 L 208 45.133 210.750 44.716 C 213.310 44.329, 213.275 44.289, 210.250 44.150 L 207 44 207 54 M 29.158 47 C 29.158 48.375, 29.385 48.938, 29.662 48.250 C 29.940 47.563, 29.940 46.438, 29.662 45.750 C 29.385 45.063, 29.158 45.625, 29.158 47 M 155 45.378 C 155 45.585, 155.787 46.373, 156.750 47.128 C 158.336 48.371, 158.371 48.336, 157.128 46.750 C 155.821 45.084, 155 44.555, 155 45.378 M 219.073 47.635 C 216.082 51.437, 216.311 57.145, 219.598 60.694 L 222.195 63.500 220.098 60.615 C 217.364 56.856, 217.353 51.092, 220.073 47.635 C 221.212 46.186, 221.920 45, 221.645 45 C 221.370 45, 220.212 46.186, 219.073 47.635 M 236.500 47 C 237.495 48.100, 238.535 49, 238.810 49 C 239.085 49, 238.495 48.100, 237.500 47 C 236.505 45.900, 235.465 45, 235.190 45 C 234.915 45, 235.505 45.900, 236.500 47 M 39.286 50.500 C 39.294 53.250, 39.488 54.256, 39.718 52.736 C 39.947 51.216, 39.941 48.966, 39.704 47.736 C 39.467 46.506, 39.279 47.750, 39.286 50.500 M 84.286 50.500 C 84.294 53.250, 84.488 54.256, 84.718 52.736 C 84.947 51.216, 84.941 48.966, 84.704 47.736 C 84.467 46.506, 84.279 47.750, 84.286 50.500 M 128.405 48.250 L 126.500 50.500 128.750 48.595 C 129.988 47.547, 131 46.535, 131 46.345 C 131 45.545, 130.195 46.136, 128.405 48.250 M 202.079 47.583 C 202.127 48.748, 202.364 48.985, 202.683 48.188 C 202.972 47.466, 202.936 46.603, 202.604 46.271 C 202.272 45.939, 202.036 46.529, 202.079 47.583 M 44.252 50.500 C 44.263 52.700, 44.468 53.482, 44.707 52.238 C 44.946 50.994, 44.937 49.194, 44.687 48.238 C 44.437 47.282, 44.241 48.300, 44.252 50.500 M 79.252 50.500 C 79.263 52.700, 79.468 53.482, 79.707 52.238 C 79.946 50.994, 79.937 49.194, 79.687 48.238 C 79.437 47.282, 79.241 48.300, 79.252 50.500 M 114.500 49 C 115.495 50.100, 116.535 51, 116.810 51 C 117.085 51, 116.495 50.100, 115.500 49 C 114.505 47.900, 113.465 47, 113.190 47 C 112.915 47, 113.505 47.900, 114.500 49 M 74.195 50.500 C 74.215 52.150, 74.439 52.704, 74.693 51.731 C 74.947 50.758, 74.930 49.408, 74.656 48.731 C 74.382 48.054, 74.175 48.850, 74.195 50.500 M 142.872 49.750 C 141.603 51.369, 141.650 51.390, 143.500 50.033 C 144.600 49.226, 145.688 48.439, 145.917 48.283 C 146.146 48.127, 145.863 48, 145.289 48 C 144.715 48, 143.627 48.788, 142.872 49.750 M 167.980 49.524 C 166.142 51.739, 167.188 51.994, 169.250 49.833 C 170.213 48.825, 170.605 48, 170.122 48 C 169.640 48, 168.676 48.686, 167.980 49.524 M 175 48.393 C 175 48.609, 175.698 49.054, 176.552 49.382 C 177.442 49.723, 177.843 49.555, 177.493 48.989 C 176.906 48.038, 175 47.583, 175 48.393 M 186.079 49.583 C 186.127 50.748, 186.364 50.985, 186.683 50.188 C 186.972 49.466, 186.936 48.603, 186.604 48.271 C 186.272 47.939, 186.036 48.529, 186.079 49.583 M 191.675 48.658 C 190.836 49.497, 192.883 52.010, 194.372 51.970 C 194.993 51.953, 194.703 51.475, 193.729 50.908 C 192.755 50.341, 192.219 49.455, 192.538 48.939 C 193.204 47.861, 192.652 47.682, 191.675 48.658 M 64.079 50.583 C 64.127 51.748, 64.364 51.985, 64.683 51.188 C 64.972 50.466, 64.936 49.603, 64.604 49.271 C 64.272 48.939, 64.036 49.529, 64.079 50.583 M 233.800 53.092 C 234.089 55.060, 233.601 56.833, 232.369 58.289 L 230.500 60.500 232.750 58.595 C 234.966 56.719, 235.873 51.658, 234.181 50.612 C 233.730 50.333, 233.559 51.450, 233.800 53.092 M 239.079 51.583 C 239.127 52.748, 239.364 52.985, 239.683 52.188 C 239.972 51.466, 239.936 50.603, 239.604 50.271 C 239.272 49.939, 239.036 50.529, 239.079 51.583 M 159.195 53.500 C 159.215 55.150, 159.439 55.704, 159.693 54.731 C 159.947 53.758, 159.930 52.408, 159.656 51.731 C 159.382 51.054, 159.175 51.850, 159.195 53.500 M 24.195 54.500 C 24.215 56.150, 24.439 56.704, 24.693 55.731 C 24.947 54.758, 24.930 53.408, 24.656 52.731 C 24.382 52.054, 24.175 52.850, 24.195 54.500 M 29.158 54 C 29.158 55.375, 29.385 55.938, 29.662 55.250 C 29.940 54.563, 29.940 53.438, 29.662 52.750 C 29.385 52.063, 29.158 52.625, 29.158 54 M 141.158 54 C 141.158 55.375, 141.385 55.938, 141.662 55.250 C 141.940 54.563, 141.940 53.438, 141.662 52.750 C 141.385 52.063, 141.158 52.625, 141.158 54 M 187 52.378 C 187 52.585, 187.787 53.373, 188.750 54.128 C 190.336 55.371, 190.371 55.336, 189.128 53.750 C 187.821 52.084, 187 51.555, 187 52.378 M 222.158 54 C 222.158 55.375, 222.385 55.938, 222.662 55.250 C 222.940 54.563, 222.940 53.438, 222.662 52.750 C 222.385 52.063, 222.158 52.625, 222.158 54 M 161.079 54.583 C 161.127 55.748, 161.364 55.985, 161.683 55.188 C 161.972 54.466, 161.936 53.603, 161.604 53.271 C 161.272 52.939, 161.036 53.529, 161.079 54.583 M 200 53.378 C 200 53.585, 200.787 54.373, 201.750 55.128 C 203.336 56.371, 203.371 56.336, 202.128 54.750 C 200.821 53.084, 200 52.555, 200 53.378 M 239.079 56.583 C 239.127 57.748, 239.364 57.985, 239.683 57.188 C 239.972 56.466, 239.936 55.603, 239.604 55.271 C 239.272 54.939, 239.036 55.529, 239.079 56.583 M 60.872 57.750 C 59.629 59.336, 59.664 59.371, 61.250 58.128 C 62.212 57.373, 63 56.585, 63 56.378 C 63 55.555, 62.179 56.084, 60.872 57.750 M 114.872 57.750 C 113.629 59.336, 113.664 59.371, 115.250 58.128 C 116.916 56.821, 117.445 56, 116.622 56 C 116.415 56, 115.627 56.788, 114.872 57.750 M 127.500 58 C 128.495 59.100, 129.535 60, 129.810 60 C 130.085 60, 129.495 59.100, 128.500 58 C 127.505 56.900, 126.465 56, 126.190 56 C 125.915 56, 126.505 56.900, 127.500 58 M 167 56.941 C 167 57.459, 167.445 58.157, 167.989 58.493 C 168.555 58.843, 168.723 58.442, 168.382 57.552 C 167.717 55.820, 167 55.503, 167 56.941 M 177.564 57.707 C 177.022 59.132, 177.136 59.247, 178.124 58.267 C 178.808 57.588, 179.115 56.781, 178.807 56.474 C 178.499 56.166, 177.940 56.721, 177.564 57.707 M 196.271 57.092 C 198.459 58.366, 197.626 59.961, 194.691 60.116 C 192.927 60.209, 192.851 60.323, 194.298 60.699 C 196.915 61.378, 199.347 59.122, 197.890 57.367 C 197.266 56.615, 196.248 56.014, 195.628 56.030 C 195.007 56.047, 195.297 56.525, 196.271 57.092 M 30.043 58 C 30.003 59.674, 33.613 66, 34.608 66 C 34.958 66, 34.752 65.407, 34.150 64.681 C 33.548 63.956, 32.386 61.818, 31.567 59.931 C 30.748 58.044, 30.062 57.175, 30.043 58 M 119.438 59.250 C 117.599 61.462, 117.599 61.470, 119.484 59.764 C 121.311 58.109, 121.520 58.132, 123.950 60.264 L 126.500 62.500 124.076 59.750 C 122.742 58.237, 121.575 57, 121.481 57 C 121.387 57, 120.468 58.013, 119.438 59.250 M 143.226 58.579 C 144.176 59.570, 145.168 60.166, 145.431 59.903 C 145.694 59.640, 144.917 58.829, 143.705 58.100 C 141.598 56.835, 141.577 56.857, 143.226 58.579 M 203.079 58.583 C 203.127 59.748, 203.364 59.985, 203.683 59.188 C 203.972 58.466, 203.936 57.603, 203.604 57.271 C 203.272 56.939, 203.036 57.529, 203.079 58.583 M 224.226 58.579 C 225.176 59.570, 226.168 60.166, 226.431 59.903 C 226.694 59.640, 225.917 58.829, 224.705 58.100 C 222.598 56.835, 222.577 56.857, 224.226 58.579 M 49.441 59.426 C 50.509 60.292, 52.759 60.948, 54.441 60.885 C 57.484 60.771, 57.481 60.766, 53.966 60.078 C 52.022 59.697, 49.772 59.040, 48.966 58.618 C 48.160 58.197, 48.374 58.560, 49.441 59.426 M 186.116 60.250 C 186.207 62.007, 186.334 62.108, 186.697 60.708 C 187.034 59.414, 187.764 59.085, 189.331 59.524 C 191.047 60.004, 191.187 59.912, 190 59.081 C 187.560 57.373, 185.992 57.845, 186.116 60.250 M 64.405 61.250 L 62.500 63.500 64.750 61.595 C 66.864 59.805, 67.455 59, 66.655 59 C 66.465 59, 65.453 60.013, 64.405 61.250 M 75.313 63.081 C 74.125 65.249, 73.572 66.764, 74.084 66.448 C 75.193 65.763, 78.294 59.961, 77.810 59.476 C 77.624 59.291, 76.500 60.913, 75.313 63.081 M 81.731 61.920 C 81.296 63.583, 81.426 63.974, 82.168 63.232 C 82.750 62.650, 83.028 61.585, 82.788 60.863 C 82.538 60.114, 82.085 60.568, 81.731 61.920 M 26 61.383 C 26 62.456, 28.975 68, 29.551 68 C 29.826 68, 29.308 66.537, 28.399 64.750 C 26.542 61.100, 26 60.339, 26 61.383 M 111 62.500 C 109.927 63.792, 110.291 63.979, 113.628 63.850 C 116.667 63.733, 116.905 63.610, 114.733 63.282 C 113.211 63.052, 112.225 62.445, 112.542 61.932 C 113.458 60.450, 112.368 60.852, 111 62.500 M 128.500 63 C 125.536 63.754, 125.546 63.765, 129.309 63.882 C 131.619 63.953, 132.875 63.607, 132.500 63 C 132.160 62.450, 131.796 62.053, 131.691 62.118 C 131.586 62.183, 130.150 62.580, 128.500 63 M 178 63 C 177.099 63.582, 176.975 63.975, 177.691 63.985 C 178.346 63.993, 179.160 63.550, 179.500 63 C 180.267 61.758, 179.921 61.758, 178 63 M 60 64 C 59.099 64.582, 58.975 64.975, 59.691 64.985 C 60.346 64.993, 61.160 64.550, 61.500 64 C 62.267 62.758, 61.921 62.758, 60 64 M 188.813 63.683 C 189.534 63.972, 190.397 63.936, 190.729 63.604 C 191.061 63.272, 190.471 63.036, 189.417 63.079 C 188.252 63.127, 188.015 63.364, 188.813 63.683 M 227.813 64.683 C 228.534 64.972, 229.397 64.936, 229.729 64.604 C 230.061 64.272, 229.471 64.036, 228.417 64.079 C 227.252 64.127, 227.015 64.364, 227.813 64.683 M 52.762 65.707 C 54.006 65.946, 55.806 65.937, 56.762 65.687 C 57.718 65.437, 56.700 65.241, 54.500 65.252 C 52.300 65.263, 51.518 65.468, 52.762 65.707 M 77.872 68.750 C 76.629 70.336, 76.664 70.371, 78.250 69.128 C 79.916 67.821, 80.445 67, 79.622 67 C 79.415 67, 78.627 67.787, 77.872 68.750 M 32 71.500 C 33.292 72.875, 34.574 74, 34.849 74 C 35.124 74, 34.292 72.875, 33 71.500 C 31.708 70.125, 30.426 69, 30.151 69 C 29.876 69, 30.708 70.125, 32 71.500 M 68.872 70.750 C 67.629 72.336, 67.664 72.371, 69.250 71.128 C 70.916 69.821, 71.445 69, 70.622 69 C 70.415 69, 69.627 69.787, 68.872 70.750 M 40.861 71.941 C 42.159 73.073, 43.697 74, 44.277 74 C 45.507 74, 45.448 73.950, 41.500 71.638 L 38.500 69.881 40.861 71.941 M 36.433 74.891 C 37.146 76.045, 41 78.374, 41 77.650 C 41 77.419, 39.820 76.457, 38.377 75.511 C 36.934 74.566, 36.059 74.287, 36.433 74.891 M 68.500 76.578 C 66.300 77.892, 64.950 78.973, 65.500 78.980 C 66.702 78.995, 73 75.246, 73 74.515 C 73 73.861, 73.207 73.766, 68.500 76.578 M 51.768 75.725 C 53.565 75.947, 56.265 75.943, 57.768 75.715 C 59.271 75.486, 57.800 75.304, 54.500 75.310 C 51.200 75.315, 49.971 75.502, 51.768 75.725 M 43 79 C 43.825 79.533, 45.175 79.945, 46 79.914 C 46.989 79.878, 46.819 79.567, 45.500 79 C 42.751 77.819, 41.172 77.819, 43 79 M 50.728 80.722 C 52.503 80.943, 55.653 80.946, 57.728 80.730 C 59.802 80.513, 58.350 80.333, 54.500 80.328 C 50.650 80.324, 48.952 80.501, 50.728 80.722" stroke="none" fill="#a4a4a4" fill-rule="evenodd"/><path d="M 44.882 22.381 C 32.525 26.796, 24.750 37.736, 24.750 50.706 C 24.750 62.912, 33.803 75.527, 44.962 78.870 C 47.035 79.492, 51.645 80, 55.206 80 C 80.792 80, 93.611 48.135, 75.439 29.703 C 67.834 21.989, 54.751 18.854, 44.882 22.381 M 46 26.302 C 40.733 27.954, 31.429 37.698, 29.971 43.088 C 28.536 48.393, 29.201 57.554, 31.318 61.647 C 33.896 66.634, 40.774 72.735, 45.714 74.418 C 59.457 79.101, 74.381 71.559, 78.444 57.878 C 80.384 51.344, 80.384 49.656, 78.444 43.122 C 74.471 29.745, 59.600 22.036, 46 26.302 M 48.445 36.959 C 47.315 37.417, 44.953 39.429, 43.195 41.430 C 40.472 44.532, 40.001 45.840, 40.007 50.285 C 40.018 59.127, 45.628 64.981, 54.102 64.993 C 59.847 65.002, 64.793 61.915, 67.332 56.737 C 68.696 53.957, 69.784 53, 71.582 53 C 73.495 53, 74 52.477, 74 50.500 C 74 48.523, 73.495 48, 71.582 48 C 69.784 48, 68.696 47.043, 67.332 44.263 C 63.981 37.428, 55.441 34.126, 48.445 36.959 M 90 49.500 L 90 63 99 63 C 106.208 63, 108 62.710, 108 61.546 C 108 60.446, 106.354 60.019, 101.250 59.796 L 94.500 59.500 94.500 55.500 L 94.500 51.500 99.750 51.198 C 103.431 50.986, 105 50.478, 105 49.500 C 105 48.522, 103.431 48.014, 99.750 47.802 L 94.500 47.500 94.500 43.500 L 94.500 39.500 101.250 39.204 C 106.354 38.981, 108 38.554, 108 37.454 C 108 36.290, 106.208 36, 99 36 L 90 36 90 49.500 M 208 37.893 C 208 40.313, 210.502 41.305, 212.013 39.484 C 213.482 37.715, 212.462 36, 209.941 36 C 208.703 36, 208 36.686, 208 37.893 M 50.388 40.980 C 46.998 42.350, 44 46.928, 44 50.735 C 44 55.116, 49.417 61, 53.450 61 C 64.091 61, 68.529 47.342, 59.647 41.926 C 56.279 39.873, 53.765 39.616, 50.388 40.980 M 143.750 45.572 C 142.157 46.436, 141 46.630, 141 46.032 C 141 45.464, 140.100 45, 139 45 C 137.099 45, 137 45.667, 137 58.500 C 137 71.333, 137.099 72, 139 72 C 140.739 72, 141 71.333, 141 66.893 C 141 62.423, 141.218 61.875, 142.750 62.503 C 143.713 62.898, 146.391 63.452, 148.702 63.735 C 152.399 64.187, 153.271 63.882, 155.952 61.202 C 164.549 52.604, 154.504 39.738, 143.750 45.572 M 166.345 45.931 C 160.650 49.404, 160.650 58.596, 166.345 62.069 C 172.739 65.968, 182.132 63.230, 183.484 57.073 C 185.111 49.666, 180.570 44.007, 173 44.007 C 171.075 44.007, 168.080 44.873, 166.345 45.931 M 189.223 45.557 C 184.869 48.606, 187.200 54.057, 193.500 55.560 C 197.930 56.617, 199.301 57.932, 197.826 59.709 C 196.687 61.082, 192.555 60.918, 188.429 59.334 C 187.487 58.973, 187 59.461, 187 60.768 C 187 64.054, 196.780 65.243, 200.777 62.443 C 205.220 59.332, 202.650 53.680, 196.207 52.391 C 194.468 52.044, 192.536 51.146, 191.914 50.396 C 190.273 48.419, 194.903 46.825, 198.932 47.981 C 201.556 48.733, 202 48.596, 202 47.037 C 202 46.034, 201.288 44.941, 200.418 44.607 C 197.480 43.479, 191.459 43.990, 189.223 45.557 M 223.357 44.938 C 218.028 47.222, 216.245 55.500, 220.043 60.328 C 223.975 65.326, 235.171 64.785, 238.021 59.461 C 240.154 55.475, 239.581 50.126, 236.713 47.258 C 233.989 44.534, 227.095 43.336, 223.357 44.938 M 115.389 49.142 L 118.934 53.283 116.717 56.244 C 111.384 63.365, 111.521 63, 114.190 63 C 115.764 63, 117.452 61.880, 118.967 59.831 L 121.309 56.663 124.141 59.831 C 125.698 61.574, 127.878 63, 128.986 63 C 131.708 63, 131.560 62.472, 127.514 57.745 L 124.028 53.672 127.581 49.336 C 130.959 45.213, 131.023 45, 128.872 45 C 127.627 45, 125.430 46.130, 123.989 47.511 L 121.368 50.021 119.010 47.511 C 117.713 46.130, 115.570 45, 114.248 45 C 111.893 45, 111.917 45.085, 115.389 49.142 M 208 54 C 208 62.933, 208.019 63, 210.500 63 C 212.981 63, 213 62.933, 213 54 C 213 45.067, 212.981 45, 210.500 45 C 208.019 45, 208 45.067, 208 54 M 144.891 48.367 C 138.950 51.329, 140.769 60, 147.332 60 C 152.905 60, 155.121 57.170, 153.713 51.850 C 152.816 48.459, 148.291 46.672, 144.891 48.367 M 226.315 48.075 C 222.079 49.650, 220.882 54.398, 223.810 58.014 C 226.010 60.730, 230.301 60.942, 233.033 58.470 C 237.976 53.997, 232.631 45.727, 226.315 48.075 M 168.058 49.430 C 167.405 50.217, 167.012 52.571, 167.185 54.662 C 167.443 57.777, 167.997 58.637, 170.250 59.425 C 174.661 60.967, 178.434 59.139, 178.810 55.278 C 179.302 50.216, 177.560 48, 173.087 48 C 170.974 48, 168.711 48.644, 168.058 49.430" stroke="none" fill="#f8f8f8" fill-rule="evenodd"/></svg>